<svg width="184" height="26" viewBox="0 0 184 26" fill="none" xmlns="http://www.w3.org/2000/svg">
<path d="M2.992 24.288C2.05333 24.288 1.328 24.032 0.816 23.52C0.304 22.9867 0.0480001 22.2507 0.0480001 21.312V4.416C0.0480001 3.456 0.304 2.72 0.816 2.208C1.34933 1.696 2.08533 1.44 3.024 1.44H10.896C13.456 1.44 15.4293 2.10133 16.816 3.424C18.224 4.72533 18.928 6.528 18.928 8.832C18.928 11.136 18.224 12.9493 16.816 14.272C15.4293 15.5733 13.456 16.224 10.896 16.224H5.936V21.312C5.936 22.2507 5.69067 22.9867 5.2 23.52C4.70933 24.032 3.97333 24.288 2.992 24.288ZM5.936 11.712H9.872C10.9813 11.712 11.8347 11.4773 12.432 11.008C13.0293 10.5173 13.328 9.792 13.328 8.832C13.328 7.85067 13.0293 7.12533 12.432 6.656C11.8347 6.18667 10.9813 5.952 9.872 5.952H5.936V11.712ZM30.057 24.352C29.2037 24.352 28.3077 24.288 27.369 24.16C26.4517 24.0533 25.577 23.8827 24.745 23.648C23.913 23.4133 23.1663 23.136 22.505 22.816C21.929 22.5387 21.5237 22.176 21.289 21.728C21.0543 21.2587 20.969 20.768 21.033 20.256C21.097 19.744 21.2783 19.296 21.577 18.912C21.8757 18.5067 22.2703 18.24 22.761 18.112C23.2517 17.9627 23.8063 18.0267 24.425 18.304C25.2357 18.688 26.153 18.9867 27.177 19.2C28.201 19.4133 29.161 19.52 30.057 19.52C31.465 19.52 32.4463 19.3387 33.001 18.976C33.577 18.592 33.865 18.1227 33.865 17.568C33.865 17.0773 33.6623 16.6827 33.257 16.384C32.873 16.0853 32.1797 15.8293 31.177 15.616L27.433 14.816C25.385 14.3893 23.8597 13.6427 22.857 12.576C21.8543 11.5093 21.353 10.1333 21.353 8.448C21.353 7.33867 21.577 6.336 22.025 5.44C22.4943 4.52267 23.145 3.744 23.977 3.104C24.8303 2.464 25.833 1.97333 26.985 1.632C28.1583 1.26933 29.4597 1.088 30.889 1.088C31.9983 1.088 33.1183 1.216 34.249 1.472C35.401 1.70667 36.393 2.06933 37.225 2.56C37.7157 2.816 38.0677 3.168 38.281 3.616C38.4943 4.064 38.5797 4.53333 38.537 5.024C38.4943 5.49333 38.3237 5.90933 38.025 6.272C37.7477 6.63467 37.3637 6.88 36.873 7.008C36.4037 7.11467 35.8383 7.02933 35.177 6.752C34.5583 6.47467 33.8543 6.272 33.065 6.144C32.297 5.99467 31.5503 5.92 30.825 5.92C30.0357 5.92 29.3637 6.016 28.809 6.208C28.2543 6.37867 27.8277 6.63467 27.529 6.976C27.2517 7.31733 27.113 7.712 27.113 8.16C27.113 8.608 27.2943 8.992 27.657 9.312C28.041 9.61067 28.7343 9.86667 29.737 10.08L33.449 10.88C35.5183 11.328 37.065 12.064 38.089 13.088C39.113 14.112 39.625 15.4453 39.625 17.088C39.625 18.1973 39.401 19.2 38.953 20.096C38.505 20.992 37.865 21.76 37.033 22.4C36.201 23.0187 35.1983 23.4987 34.025 23.84C32.8517 24.1813 31.529 24.352 30.057 24.352ZM60.057 24.352C59.2037 24.352 58.3077 24.288 57.369 24.16C56.4517 24.0533 55.577 23.8827 54.745 23.648C53.913 23.4133 53.1663 23.136 52.505 22.816C51.929 22.5387 51.5237 22.176 51.289 21.728C51.0543 21.2587 50.969 20.768 51.033 20.256C51.097 19.744 51.2783 19.296 51.577 18.912C51.8757 18.5067 52.2703 18.24 52.761 18.112C53.2517 17.9627 53.8063 18.0267 54.425 18.304C55.2357 18.688 56.153 18.9867 57.177 19.2C58.201 19.4133 59.161 19.52 60.057 19.52C61.465 19.52 62.4463 19.3387 63.001 18.976C63.577 18.592 63.865 18.1227 63.865 17.568C63.865 17.0773 63.6623 16.6827 63.257 16.384C62.873 16.0853 62.1797 15.8293 61.177 15.616L57.433 14.816C55.385 14.3893 53.8597 13.6427 52.857 12.576C51.8543 11.5093 51.353 10.1333 51.353 8.448C51.353 7.33867 51.577 6.336 52.025 5.44C52.4943 4.52267 53.145 3.744 53.977 3.104C54.8303 2.464 55.833 1.97333 56.985 1.632C58.1583 1.26933 59.4597 1.088 60.889 1.088C61.9983 1.088 63.1183 1.216 64.249 1.472C65.401 1.70667 66.393 2.06933 67.225 2.56C67.7157 2.816 68.0677 3.168 68.281 3.616C68.4943 4.064 68.5797 4.53333 68.537 5.024C68.4943 5.49333 68.3237 5.90933 68.025 6.272C67.7477 6.63467 67.3637 6.88 66.873 7.008C66.4037 7.11467 65.8383 7.02933 65.177 6.752C64.5583 6.47467 63.8543 6.272 63.065 6.144C62.297 5.99467 61.5503 5.92 60.825 5.92C60.0357 5.92 59.3637 6.016 58.809 6.208C58.2543 6.37867 57.8277 6.63467 57.529 6.976C57.2517 7.31733 57.113 7.712 57.113 8.16C57.113 8.608 57.2943 8.992 57.657 9.312C58.041 9.61067 58.7343 9.86667 59.737 10.08L63.449 10.88C65.5183 11.328 67.065 12.064 68.089 13.088C69.113 14.112 69.625 15.4453 69.625 17.088C69.625 18.1973 69.401 19.2 68.953 20.096C68.505 20.992 67.865 21.76 67.033 22.4C66.201 23.0187 65.1983 23.4987 64.025 23.84C62.8517 24.1813 61.529 24.352 60.057 24.352ZM80.1008 24.352C78.3514 24.352 76.8261 24.0213 75.5248 23.36C74.2234 22.6987 73.2101 21.7493 72.4848 20.512C71.7594 19.2747 71.3968 17.8133 71.3968 16.128C71.3968 14.848 71.5994 13.7067 72.0048 12.704C72.4101 11.68 72.9968 10.816 73.7648 10.112C74.5328 9.38667 75.4501 8.84267 76.5168 8.48C77.5834 8.096 78.7781 7.904 80.1008 7.904C81.8501 7.904 83.3754 8.23467 84.6768 8.896C85.9781 9.55733 86.9808 10.5067 87.6848 11.744C88.4101 12.96 88.7728 14.4213 88.7728 16.128C88.7728 17.3867 88.5701 18.528 88.1648 19.552C87.7594 20.576 87.1728 21.4507 86.4048 22.176C85.6581 22.88 84.7408 23.424 83.6528 23.808C82.5861 24.1707 81.4021 24.352 80.1008 24.352ZM80.1008 20.16C80.6768 20.16 81.1888 20.0213 81.6368 19.744C82.0848 19.4453 82.4261 19.008 82.6608 18.432C82.9168 17.8347 83.0448 17.0667 83.0448 16.128C83.0448 14.6987 82.7674 13.6747 82.2128 13.056C81.6581 12.416 80.9541 12.096 80.1008 12.096C79.5248 12.096 79.0128 12.2347 78.5648 12.512C78.1168 12.7893 77.7648 13.2267 77.5088 13.824C77.2528 14.4 77.1248 15.168 77.1248 16.128C77.1248 17.536 77.4021 18.56 77.9568 19.2C78.5114 19.84 79.2261 20.16 80.1008 20.16ZM97.3668 24.352C95.3188 24.352 93.8041 23.808 92.8228 22.72C91.8628 21.6107 91.3828 19.9467 91.3828 17.728V4.032C91.3828 3.09333 91.6281 2.37867 92.1188 1.888C92.6094 1.39733 93.3028 1.152 94.1988 1.152C95.1161 1.152 95.8201 1.39733 96.3108 1.888C96.8228 2.37867 97.0788 3.09333 97.0788 4.032V17.536C97.0788 18.3253 97.2281 18.9013 97.5268 19.264C97.8468 19.6267 98.2521 19.808 98.7428 19.808C98.8921 19.808 99.0414 19.7973 99.1908 19.776C99.3614 19.7333 99.5428 19.7013 99.7348 19.68C100.097 19.68 100.364 19.8187 100.535 20.096C100.727 20.3733 100.823 20.9387 100.823 21.792C100.823 22.5387 100.673 23.104 100.375 23.488C100.076 23.8507 99.6174 24.0853 98.9988 24.192C98.8281 24.2133 98.5828 24.2453 98.2628 24.288C97.9428 24.3307 97.6441 24.352 97.3668 24.352ZM107.98 24.352C106.764 24.352 105.686 24.128 104.748 23.68C103.83 23.232 103.105 22.624 102.572 21.856C102.06 21.0667 101.804 20.1707 101.804 19.168C101.804 18.016 102.102 17.1093 102.7 16.448C103.297 15.7867 104.257 15.3173 105.58 15.04C106.902 14.7413 108.662 14.592 110.86 14.592H112.62V17.28H110.86C110.028 17.28 109.334 17.344 108.78 17.472C108.246 17.5787 107.852 17.76 107.596 18.016C107.34 18.2507 107.212 18.56 107.212 18.944C107.212 19.4347 107.382 19.84 107.724 20.16C108.086 20.48 108.598 20.64 109.26 20.64C109.793 20.64 110.262 20.5227 110.668 20.288C111.094 20.0533 111.436 19.7333 111.692 19.328C111.948 18.9013 112.076 18.4107 112.076 17.856V14.144C112.076 13.376 111.873 12.832 111.468 12.512C111.084 12.192 110.412 12.032 109.452 12.032C108.94 12.032 108.364 12.096 107.724 12.224C107.084 12.3307 106.369 12.5333 105.58 12.832C105.004 13.0453 104.513 13.0773 104.108 12.928C103.702 12.7787 103.382 12.5227 103.148 12.16C102.934 11.7973 102.828 11.4027 102.828 10.976C102.849 10.5493 102.988 10.144 103.244 9.76C103.521 9.376 103.937 9.07733 104.492 8.864C105.516 8.48 106.454 8.224 107.308 8.096C108.182 7.968 108.982 7.904 109.708 7.904C111.457 7.904 112.897 8.16 114.028 8.672C115.18 9.16267 116.033 9.93067 116.588 10.976C117.164 12 117.452 13.3227 117.452 14.944V21.408C117.452 22.3467 117.228 23.0613 116.78 23.552C116.332 24.0427 115.681 24.288 114.828 24.288C113.953 24.288 113.281 24.0427 112.812 23.552C112.364 23.0613 112.14 22.3467 112.14 21.408V20.576L112.332 21.024C112.225 21.7067 111.98 22.2933 111.596 22.784C111.212 23.2747 110.71 23.6587 110.092 23.936C109.473 24.2133 108.769 24.352 107.98 24.352ZM123.511 24.288C122.615 24.288 121.922 24.0427 121.431 23.552C120.941 23.0613 120.695 22.3467 120.695 21.408V10.816C120.695 9.89867 120.93 9.19467 121.399 8.704C121.89 8.21333 122.583 7.968 123.479 7.968C124.375 7.968 125.058 8.21333 125.527 8.704C125.997 9.19467 126.231 9.89867 126.231 10.816V12.32L125.879 11.008C126.391 10.0053 127.117 9.23733 128.055 8.704C129.015 8.17067 130.103 7.904 131.319 7.904C132.578 7.904 133.613 8.14933 134.423 8.64C135.234 9.10933 135.842 9.856 136.247 10.88C136.653 11.8827 136.855 13.152 136.855 14.688V21.408C136.855 22.3467 136.61 23.0613 136.119 23.552C135.629 24.0427 134.925 24.288 134.007 24.288C133.09 24.288 132.386 24.0427 131.895 23.552C131.405 23.0613 131.159 22.3467 131.159 21.408V14.912C131.159 13.952 130.989 13.2693 130.647 12.864C130.327 12.4587 129.847 12.256 129.207 12.256C128.354 12.256 127.671 12.5333 127.159 13.088C126.647 13.6213 126.391 14.3467 126.391 15.264V21.408C126.391 23.328 125.431 24.288 123.511 24.288ZM142.918 24.288C142.022 24.288 141.328 24.0427 140.838 23.552C140.347 23.0613 140.102 22.3467 140.102 21.408V4.032C140.102 3.09333 140.347 2.37867 140.838 1.888C141.328 1.39733 142.022 1.152 142.918 1.152C143.835 1.152 144.539 1.39733 145.03 1.888C145.542 2.37867 145.798 3.09333 145.798 4.032V14.592H145.862L149.766 9.856C150.299 9.216 150.79 8.74667 151.238 8.448C151.707 8.128 152.336 7.968 153.126 7.968C153.915 7.968 154.523 8.16 154.95 8.544C155.376 8.928 155.6 9.408 155.622 9.984C155.643 10.56 155.408 11.136 154.918 11.712L150.694 16.704V14.72L155.43 20.672C155.899 21.2693 156.091 21.856 156.006 22.432C155.92 22.9867 155.643 23.4347 155.174 23.776C154.726 24.1173 154.15 24.288 153.446 24.288C152.592 24.288 151.91 24.1387 151.398 23.84C150.886 23.52 150.374 23.0293 149.862 22.368L145.862 17.44H145.798V21.408C145.798 23.328 144.838 24.288 142.918 24.288ZM161.48 24.288C160.584 24.288 159.891 24.0213 159.4 23.488C158.909 22.9547 158.664 22.1867 158.664 21.184V11.072C158.664 10.0693 158.909 9.30133 159.4 8.768C159.891 8.23467 160.584 7.968 161.48 7.968C162.397 7.968 163.101 8.23467 163.592 8.768C164.104 9.30133 164.36 10.0693 164.36 11.072V21.184C164.36 22.1867 164.115 22.9547 163.624 23.488C163.133 24.0213 162.419 24.288 161.48 24.288ZM161.48 5.696C160.477 5.696 159.699 5.46133 159.144 4.992C158.611 4.52267 158.344 3.84 158.344 2.944C158.344 2.06933 158.611 1.39733 159.144 0.927999C159.699 0.458666 160.477 0.223999 161.48 0.223999C162.525 0.223999 163.315 0.458666 163.848 0.927999C164.381 1.39733 164.648 2.06933 164.648 2.944C164.648 3.84 164.381 4.52267 163.848 4.992C163.315 5.46133 162.525 5.696 161.48 5.696Z" fill="#f7f7f7"/>
<path d="M184 20C184 23.3137 181.314 26 178 26C174.686 26 172 23.3137 172 20C172 16.6863 174.686 14 178 14C181.314 14 184 16.6863 184 20Z" fill="#fff"/>
</svg>
